#Comment line ignore any data following # character 
#Hierarchical Translation and Rotation (.htr) file 
[Header]	
#Header keywords are followed by a single value 
FileType HTR		#Single word string
DataType HTRS		#Translation followed by rotation and scale data
FileVersion 1		#integer
NumSegments 23		#integer
NumFrames 5		#integer
DataFrameRate 30		#integer, data frame rate in this file
EulerRotationOrder ZYX
CalibrationUnits mm
RotationUnits Degrees
GlobalAxisofGravity Y
BoneLengthAxis Y
ScaleFactor 1.00
[SegmentNames&Hierarchy]
#CHILD	PARENT
MASTER GLOBAL
weapon MASTER
arm_lock_bottom_part1 weapon
arm_lock_bottom_part2 weapon
arm_lock_bottom_part3 weapon
arm_lock_bottom_part4 weapon
arm_lock_top_part1 weapon
arm_lock_top_part2 weapon
arm_lock_top_part3 weapon
front_lower_left_part1 weapon
front_lower_right_part1 weapon
front_top_left_part weapon
front_top_right_part1 weapon
scope_part1 weapon
scope_part2 weapon
front_lower_left_part2 front_lower_left_part1
front_lower_left_part3 front_lower_left_part2
front_lower_right_part2 front_lower_right_part1
front_lower_right_part3 front_lower_right_part2
front_top_left_part2 front_top_left_part
front_top_left_part3 front_top_left_part2
front_top_right_part2 front_top_right_part1
front_top_right_part3 front_top_right_part2
[BasePosition]
#SegmentName Tx, Ty, Tz, Rx, Ry, Rz, BoneLength
MASTER 0.000000 0.000000 0.000000 -90.000000 0.000000 0.000000 10.000000 
weapon 0.000000 0.000000 0.000000 0.000000 0.000000 0.000000 10.000000 
arm_lock_bottom_part1 0.000000 0.000000 0.000000 0.000000 0.000000 0.000000 10.000000 
arm_lock_bottom_part2 0.000000 0.000000 0.000000 0.000000 0.000000 0.000000 10.000000 
arm_lock_bottom_part3 0.000000 0.000000 0.000000 0.000000 0.000000 0.000000 10.000000 
arm_lock_bottom_part4 0.000000 0.000000 0.000000 0.000000 0.000000 0.000000 10.000000 
arm_lock_top_part1 0.000000 0.000000 0.000000 0.000000 0.000000 0.000000 10.000000 
arm_lock_top_part2 0.000000 0.000000 0.000000 0.000000 0.000000 0.000000 10.000000 
arm_lock_top_part3 0.000000 0.000000 0.000000 0.000000 0.000000 0.000000 10.000000 
front_lower_left_part1 0.000000 0.000000 0.000000 0.000000 0.000000 0.000000 10.000000 
front_lower_right_part1 0.000000 0.000000 0.000000 0.000000 0.000000 0.000000 10.000000 
front_top_left_part 0.000000 0.000000 0.000000 0.000000 0.000000 0.000000 10.000000 
front_top_right_part1 0.000000 0.000000 0.000000 0.000000 0.000000 0.000000 10.000000 
scope_part1 0.000000 0.000000 0.000000 0.000000 0.000000 0.000000 10.000000 
scope_part2 0.000000 0.000000 0.000000 0.000000 0.000000 0.000000 10.000000 
front_lower_left_part2 0.000000 0.000000 0.000000 0.000000 0.000000 0.000000 10.000000 
front_lower_left_part3 0.000000 0.000000 0.000000 0.000000 0.000000 0.000000 10.000000 
front_lower_right_part2 0.000000 0.000000 0.000000 0.000000 0.000000 0.000000 10.000000 
front_lower_right_part3 0.000000 0.000000 0.000000 0.000000 0.000000 0.000000 10.000000 
front_top_left_part2 0.000000 0.000000 0.000000 0.000000 0.000000 0.000000 10.000000 
front_top_left_part3 0.000000 0.000000 0.000000 0.000000 0.000000 0.000000 10.000000 
front_top_right_part2 0.000000 0.000000 0.000000 0.000000 0.000000 0.000000 10.000000 
front_top_right_part3 0.000000 0.000000 0.000000 0.000000 0.000000 0.000000 10.000000 
#Beginning of Data. Separated by tabs
#Fr	Tx	Ty	Tz	Rx	Ry	Rz	SF
[MASTER]
8 0.000000 -0.000019 0.000002 0.002458 -0.000000 0.000000 0.000019
9 0.000000 -0.000019 0.000002 0.002458 -0.000000 0.000000 0.000019
10 0.000000 -0.000019 0.000002 0.002458 -0.000000 0.000000 0.000019
11 0.000000 -0.000019 0.000002 0.002458 -0.000000 0.000000 0.000019
12 0.000000 -0.000019 0.000002 0.002458 -0.000000 0.000000 0.000019
[weapon]
8 10.182476 -168.977844 -13.084106 -0.002473 -0.000000 -0.000020 169.789246
9 10.182457 -168.977844 -13.084106 -0.002473 -0.000000 -0.000020 169.789246
10 10.182476 -168.977890 -13.084106 -0.002473 -0.000000 -0.000020 169.789291
11 10.182457 -168.977844 -13.084106 -0.002473 -0.000000 -0.000020 169.789246
12 10.182457 -168.977844 -13.084106 -0.002473 -0.000000 -0.000020 169.789246
[arm_lock_bottom_part1]
8 -48.820000 98.566170 -83.498993 179.999985 0.000004 9.388626 138.096939
9 -48.820000 98.566208 -83.498993 179.999985 0.000004 9.388626 138.096970
10 -48.820019 98.566170 -83.498993 179.999985 0.000004 9.388626 138.096939
11 -48.820000 98.566208 -83.498993 179.999985 0.000004 9.388626 138.096970
12 -48.820000 98.566208 -83.498993 179.999985 0.000004 9.388626 138.096970
[arm_lock_bottom_part2]
8 -49.022766 58.781967 -78.526535 -179.999985 -0.000001 6.576765 109.658417
9 -49.022766 58.782005 -78.526535 -179.999985 -0.000001 6.576765 109.658440
10 -49.022751 58.781967 -78.526535 -179.999985 -0.000001 6.576765 109.658409
11 -49.022766 58.782005 -78.526535 -179.999985 -0.000001 6.576765 109.658440
12 -49.022766 58.782005 -78.526535 -179.999985 -0.000001 6.576765 109.658440
[arm_lock_bottom_part3]
8 -51.266422 -16.798248 -66.920395 -179.999985 -0.000001 4.326176 85.957932
9 -51.266422 -16.798210 -66.920395 -179.999985 -0.000001 4.326176 85.957924
10 -51.266422 -16.798248 -66.920395 -179.999985 -0.000001 4.326176 85.957932
11 -51.266422 -16.798210 -66.920395 -179.999985 -0.000001 4.326176 85.957924
12 -51.266422 -16.798210 -66.920395 -179.999985 -0.000001 4.326176 85.957924
[arm_lock_bottom_part4]
8 -40.078083 -93.503136 -59.330063 -179.999985 -0.000000 1.322129 117.767326
9 -40.078102 -93.503113 -59.330063 -179.999985 -0.000000 1.322129 117.767326
10 -40.078083 -93.503098 -59.330063 -179.999985 -0.000000 1.322129 117.767311
11 -40.078102 -93.503113 -59.330063 -179.999985 -0.000000 1.322129 117.767326
12 -40.078102 -93.503113 -59.330063 -179.999985 -0.000000 1.322129 117.767326
[arm_lock_top_part1]
8 -47.532558 61.554451 78.379364 0.000000 -0.000000 -9.999999 110.415672
9 -47.532558 61.554489 78.379364 0.000000 -0.000000 -9.999999 110.415680
10 -47.532558 61.554451 78.379364 0.000000 -0.000000 -9.999999 110.415672
11 -47.532558 61.554489 78.379364 0.000000 -0.000000 -9.999999 110.415680
12 -47.532558 61.554489 78.379364 0.000000 -0.000000 -9.999999 110.415680
[arm_lock_top_part2]
8 -45.622673 13.709869 63.393555 0.000000 -0.000000 -7.722126 79.297745
9 -45.622673 13.709908 63.393555 0.000000 -0.000000 -7.722126 79.297745
10 -45.622673 13.709908 63.393555 0.000000 -0.000000 -7.722126 79.297745
11 -45.622673 13.709908 63.393555 0.000000 -0.000000 -7.722126 79.297745
12 -45.622673 13.709908 63.393555 0.000000 -0.000000 -7.722126 79.297745
[arm_lock_top_part3]
8 -43.788525 -73.747253 72.061615 0.000000 0.000000 -4.533067 112.022179
9 -43.788544 -73.747208 72.061615 0.000000 0.000000 -4.533067 112.022163
10 -43.788544 -73.747208 72.061615 0.000000 0.000000 -4.533067 112.022163
11 -43.788544 -73.747208 72.061615 0.000000 0.000000 -4.533067 112.022163
12 -43.788544 -73.747208 72.061615 0.000000 0.000000 -4.533067 112.022163
[front_lower_left_part1]
8 -46.798534 475.071014 -43.538895 -17.980034 0.000051 32.194073 479.351868
9 -46.798534 475.071045 -43.538895 -17.980034 0.000051 32.194073 479.351898
10 -46.798515 475.070953 -43.538895 -17.980034 0.000051 32.194077 479.351807
11 -46.798534 475.071045 -43.538895 -17.980034 0.000051 32.194077 479.351898
12 -46.798534 475.071045 -43.538895 -17.980034 0.000051 32.194077 479.351898
[front_lower_right_part1]
8 26.433447 475.070953 -43.538895 -17.167982 -0.000012 -27.317894 477.793640
9 26.433468 475.070984 -43.538742 -17.167982 -0.000012 -27.317894 477.793671
10 26.433468 475.071014 -43.538895 -17.167982 -0.000012 -27.317894 477.793701
11 26.433468 475.070984 -43.538742 -17.167982 -0.000012 -27.317898 477.793671
12 26.433468 475.070984 -43.538742 -17.167982 -0.000012 -27.317892 477.793671
[front_top_left_part]
8 -47.897224 494.788879 7.030945 -0.000000 0.000003 -0.000001 497.151489
9 -47.897224 494.788910 7.030945 -0.000000 0.000003 -0.000001 497.151520
10 -47.897205 494.788788 7.030945 -0.000000 0.000003 -0.000001 497.151398
11 -47.897224 494.788910 7.030945 -0.000000 0.000003 -0.000001 497.151520
12 -47.897224 494.788910 7.030945 -0.000000 0.000003 -0.000001 497.151520
[front_top_right_part1]
8 27.532156 494.788879 7.031097 0.000000 -0.000000 -0.000000 495.604187
9 27.532139 494.788910 7.031097 0.000000 -0.000000 -0.000000 495.604218
10 27.532177 494.788727 7.031097 0.000000 -0.000000 -0.000000 495.604004
11 27.532139 494.788910 7.031097 0.000000 -0.000000 -0.000000 495.604218
12 27.532139 494.788910 7.031097 0.000000 -0.000000 -0.000000 495.604218
[scope_part1]
8 -10.754318 87.338905 156.453094 -5.089494 -15.475140 1.361398 179.502960
9 -10.754299 87.338936 156.453094 -5.088072 -15.418299 1.356090 179.502960
10 -10.754318 87.338936 156.453094 -5.086488 -15.355715 1.350346 179.502960
11 -10.754299 87.338936 156.453094 -5.084827 -15.287850 1.344035 179.502960
12 -10.754299 87.338936 156.453094 -5.083104 -15.215015 1.337331 179.502960
[scope_part2]
8 -10.754318 82.597305 156.859894 -5.701232 30.614763 -2.910512 177.603470
9 -10.754299 82.597351 156.859894 -5.697371 30.549149 -2.902846 177.603500
10 -10.754318 82.597305 156.859894 -5.693088 30.476864 -2.894532 177.603470
11 -10.754299 82.597351 156.859894 -5.688330 30.395575 -2.885107 177.603500
12 -10.754299 82.597351 156.859894 -5.683589 30.314280 -2.875696 177.603500
[front_lower_left_part2]
8 -55.193558 141.618347 32.268372 0.000000 -0.000000 15.170967 155.381241
9 -55.193634 141.618408 32.268219 0.000000 -0.000000 15.114374 155.381317
10 -55.193558 141.618454 32.268372 0.000000 -0.000000 15.049528 155.381348
11 -55.193634 141.618408 32.268219 0.000000 -0.000000 14.984675 155.381317
12 -55.193634 141.618408 32.268219 0.000000 -0.000000 14.912502 155.381317
[front_lower_left_part3]
8 -10.943831 108.509445 -11.124877 35.661312 -8.821795 -24.154547 109.625862
9 -10.943755 108.509445 -11.125030 35.665611 -8.801947 -24.182453 109.625870
10 -10.943831 108.509369 -11.124877 35.670353 -8.779959 -24.213511 109.625786
11 -10.943831 108.509445 -11.124877 35.675518 -8.755926 -24.247421 109.625862
12 -10.943831 108.509445 -11.124877 35.681084 -8.730014 -24.283915 109.625862
[front_lower_right_part2]
8 55.193665 141.618195 32.268372 0.000000 0.000000 -18.878712 155.381149
9 55.193668 141.618195 32.268372 0.000000 0.000000 -18.834688 155.381149
10 55.193695 141.618195 32.268372 0.000000 0.000000 -18.786282 155.381165
11 55.193668 141.618195 32.268372 0.000000 0.000000 -18.733963 155.381149
12 55.193668 141.618195 32.268372 0.000000 0.000000 -18.678047 155.381149
[front_lower_right_part3]
8 10.943851 108.509369 -11.124725 35.212456 10.680326 21.505177 109.625778
9 10.943851 108.509483 -11.124725 35.216522 10.665191 21.526966 109.625885
10 10.943870 108.509590 -11.124725 35.220993 10.648443 21.551083 109.625999
11 10.943737 108.509590 -11.124725 35.225883 10.630096 21.577532 109.625984
12 10.943831 108.509590 -11.124725 35.231079 10.610372 21.605877 109.625992
[front_top_left_part2]
8 -87.903481 137.390823 57.331085 9.859099 0.395372 20.011526 172.887573
9 -87.777153 137.391052 57.324062 9.858535 0.405445 19.953491 172.821228
10 -87.638855 137.391434 57.316738 9.857959 0.415516 19.895447 172.748901
11 -87.489677 137.391663 57.308350 9.857388 0.426886 19.829977 172.670670
12 -87.330818 137.392044 57.299652 9.856689 0.438954 19.760313 172.587646
[front_top_left_part3]
8 -28.216400 149.656906 49.959717 -26.073109 -1.621369 -61.846184 160.278900
9 -28.216400 149.656906 49.959488 -26.072416 -1.634528 -61.873180 160.278839
10 -28.216400 149.656906 49.959869 -26.071526 -1.649075 -61.902988 160.278961
11 -28.216400 149.656830 49.959717 -26.070602 -1.664989 -61.935478 160.278839
12 -28.216438 149.656906 49.959564 -26.069565 -1.682072 -61.970470 160.278870
[front_top_right_part2]
8 81.834450 137.572098 52.681122 8.056918 1.192301 -23.155333 168.517838
9 81.729729 137.571869 52.686768 8.058057 1.183792 -23.095266 168.468582
10 81.614914 137.571701 52.693172 8.059183 1.175281 -23.035192 168.414780
11 81.490974 137.571411 52.699890 8.060472 1.165368 -22.965193 168.356613
12 81.358833 137.571091 52.707214 8.061751 1.155453 -22.895191 168.294739
[front_top_right_part3]
8 28.216452 149.657135 49.959717 -25.954708 3.041774 64.758362 160.279129
9 28.216465 149.657059 49.959641 -25.953594 3.052316 64.780106 160.279037
10 28.216608 149.656906 49.959717 -25.952290 3.064022 64.804031 160.278946
11 28.216429 149.657211 49.959717 -25.950903 3.076747 64.830376 160.279190
12 28.216476 149.657059 49.959564 -25.949310 3.090451 64.858582 160.279007
